<svg width="35" height="34" viewBox="0 0 35 34" fill="none" xmlns="http://www.w3.org/2000/svg">
<g clip-path="url(#clip0_1_1282)">
<path d="M33.1457 27.0625L33.1457 27.0625C33.277 26.9715 33.3888 26.8553 33.4748 26.7207L33.7681 26.908L33.4748 26.7207C33.5607 26.5861 33.619 26.4357 33.6464 26.2784C33.6737 26.121 33.6695 25.9598 33.6339 25.8041L33.9732 25.7267L33.6339 25.8041C33.5984 25.6484 33.5323 25.5013 33.4394 25.3714L33.4378 25.3692C32.1307 23.5113 30.3498 22.0374 28.2802 21.1008L27.7755 20.8724L28.2003 20.5168C29.4601 19.4624 30.3643 18.0452 30.7898 16.4584C31.2153 14.8716 31.1414 13.1922 30.5782 11.6489C30.015 10.1056 28.9899 8.77331 27.6424 7.83352C26.2948 6.89373 24.6904 6.39206 23.0475 6.39684L23.046 6.39684C22.3148 6.39562 21.5871 6.49658 20.884 6.69677L20.8777 6.69855L20.8777 6.69849C20.7215 6.73982 20.5751 6.81181 20.447 6.91027C20.3189 7.00872 20.2117 7.13168 20.1315 7.27197C20.0514 7.41227 20 7.56711 19.9803 7.72746C19.9606 7.88782 19.973 8.0505 20.0167 8.20602C20.0605 8.36155 20.1348 8.50681 20.2352 8.63336L19.9626 8.84973L20.2352 8.63336C20.3356 8.75991 20.4603 8.86521 20.6018 8.94314L20.4339 9.24801L20.6018 8.94314C20.7433 9.02106 20.8989 9.07006 21.0596 9.08727C21.2202 9.10447 21.3827 9.08955 21.5375 9.04337L21.5415 9.04218L21.5415 9.0422C22.0312 8.90251 22.538 8.83212 23.0472 8.83308M33.1457 27.0625L23.0465 9.18112M33.1457 27.0625L33.1416 27.0654C32.9385 27.2106 32.6948 27.2883 32.4451 27.2876C32.2498 27.2864 32.0575 27.2388 31.8842 27.1486C31.711 27.0585 31.5618 26.9284 31.4487 26.7693M33.1457 27.0625L31.1644 26.97M23.0472 8.83308L23.0465 9.18112M23.0472 8.83308C23.047 8.83308 23.0468 8.83308 23.0465 8.83308V9.18112M23.0472 8.83308C24.5238 8.83325 25.9399 9.41992 26.9841 10.4641C28.0284 11.5084 28.6151 12.9248 28.6151 14.4016C28.6151 15.8785 28.0284 17.2949 26.9841 18.3392C25.9398 19.3835 24.5234 19.9702 23.0465 19.9702C22.7235 19.9702 22.4136 20.0985 22.1852 20.327C21.9568 20.5554 21.8284 20.8652 21.8284 21.1883C21.8284 21.5114 21.9568 21.8212 22.1852 22.0497C22.4136 22.2781 22.7235 22.4064 23.0465 22.4064H23.0469C24.6943 22.4082 26.3173 22.8054 27.7793 23.5647C29.2413 24.3239 30.4996 25.4228 31.4487 26.7693M23.0465 9.18112C24.4311 9.18112 25.759 9.73113 26.738 10.7102C27.717 11.6892 28.2671 13.0171 28.2671 14.4016C28.2671 15.7862 27.717 17.1141 26.738 18.0931C25.759 19.0721 24.4311 19.6222 23.0465 19.6222C22.6312 19.6222 22.2328 19.7872 21.9391 20.0809C21.6454 20.3746 21.4804 20.7729 21.4804 21.1883C21.4804 21.6037 21.6454 22.002 21.9391 22.2958C22.2328 22.5895 22.6312 22.7545 23.0465 22.7545C24.6383 22.7562 26.2063 23.14 27.6189 23.8736C29.0315 24.6071 30.2474 25.669 31.1644 26.97M31.4487 26.7693C31.4486 26.7691 31.4485 26.7689 31.4483 26.7687L31.1644 26.97M31.4487 26.7693C31.4488 26.7693 31.4489 26.7694 31.4489 26.7695L31.1644 26.97M17.5628 20.5174L17.1401 20.873L17.6434 21.1008C19.713 22.0374 21.4939 23.5113 22.801 25.3692L22.806 25.3763L22.8113 25.3831C22.9129 25.5132 22.9869 25.6626 23.029 25.8221C23.0711 25.9817 23.0803 26.1482 23.056 26.3114C23.0318 26.4746 22.9747 26.6312 22.8881 26.7717C22.8015 26.9122 22.6873 27.0336 22.5524 27.1286C22.4174 27.2236 22.2646 27.2902 22.1032 27.3244C21.9417 27.3585 21.775 27.3595 21.6132 27.3273C21.4513 27.2951 21.2977 27.2303 21.1617 27.1369C21.0256 27.0435 20.91 26.9234 20.8217 26.784L20.8173 26.7769L20.8125 26.7701C19.8653 25.421 18.6073 24.3199 17.1447 23.5597C15.6821 22.7995 14.058 22.4027 12.4097 22.4027C10.7614 22.4027 9.1373 22.7995 7.67474 23.5597C6.21217 24.3199 4.95413 25.421 4.00697 26.7701L4.00619 26.7712C3.89485 26.9311 3.7464 27.0616 3.57355 27.1515C3.40071 27.2415 3.20863 27.2882 3.01378 27.2876L3.01165 27.2876C2.76175 27.2884 2.51792 27.2107 2.31462 27.0654L2.31295 27.0642C2.04944 26.8782 1.87046 26.5952 1.81527 26.2775C1.7601 25.9598 1.83315 25.6331 2.0184 25.3692C3.3255 23.5113 5.10645 22.0374 7.17607 21.1008L7.67939 20.873L7.25663 20.5174C6.0002 19.4604 5.09918 18.0427 4.67573 16.4563C4.25227 14.87 4.32686 13.1918 4.88939 11.6493C5.45192 10.1068 6.47517 8.77457 7.82042 7.83325C9.16567 6.89192 10.7678 6.38704 12.4097 6.38704C14.0516 6.38704 15.6538 6.89192 16.999 7.83325C18.3443 8.77457 19.3675 10.1068 19.93 11.6493C20.4926 13.1918 20.5672 14.87 20.1437 16.4563C19.7203 18.0427 18.8192 19.4604 17.5628 20.5174ZM7.77964 11.3079C7.16775 12.2237 6.84116 13.3003 6.84116 14.4016C6.84116 15.8785 7.42785 17.2949 8.47216 18.3392C9.51646 19.3835 10.9328 19.9702 12.4097 19.9702C13.5111 19.9702 14.5877 19.6436 15.5034 19.0317C16.4192 18.4198 17.1329 17.5502 17.5544 16.5326C17.9759 15.5151 18.0861 14.3955 17.8713 13.3153C17.6564 12.2351 17.1261 11.2428 16.3473 10.4641C15.5685 9.6853 14.5763 9.15494 13.4961 8.94008C12.4159 8.72521 11.2962 8.83549 10.2787 9.25696C9.26121 9.67843 8.39152 10.3922 7.77964 11.3079Z" fill="#4CAF4F" stroke="#4CAF4F" stroke-width="0.696069"/>
</g>
<defs>
<clipPath id="clip0_1_1282">
<rect width="33.4113" height="33.4113" fill="white" transform="translate(0.924591 0.306213)"/>
</clipPath>
</defs>
</svg>
