<svg width="34" height="34" viewBox="0 0 34 34" fill="none" xmlns="http://www.w3.org/2000/svg">
<g clip-path="url(#clip0_1_996)">
<path fill-rule="evenodd" clip-rule="evenodd" d="M9.97907 3.1499C13.8233 3.1499 16.9398 6.26631 16.9398 10.1106V3.1499H23.9005C27.7447 3.1499 30.8612 6.26631 30.8612 10.1106C30.8612 13.9548 27.7447 17.0713 23.9005 17.0713C27.7447 17.0713 30.8612 20.1877 30.8612 24.032C30.8612 25.9408 30.0928 27.6702 28.8485 28.9277L28.8224 28.954L28.7993 28.9769C27.5415 30.223 25.8109 30.9927 23.9005 30.9927C22.003 30.9927 20.2829 30.2335 19.0273 29.0023C19.011 28.9863 18.9947 28.9701 18.9785 28.954C18.9632 28.9387 18.9481 28.9234 18.933 28.908C17.7001 27.6522 16.9398 25.9309 16.9398 24.032C16.9398 27.8762 13.8233 30.9927 9.97907 30.9927C6.13478 30.9927 3.01837 27.8762 3.01837 24.032V17.0713H9.97907C6.13478 17.0713 3.01837 13.9548 3.01837 10.1106C3.01837 6.26631 6.13478 3.1499 9.97907 3.1499ZM15.5476 10.1106C15.5476 13.186 13.0545 15.6792 9.97907 15.6792V4.54204C13.0545 4.54204 15.5476 7.03517 15.5476 10.1106ZM29.469 24.032C29.469 20.9565 26.9759 18.4634 23.9005 18.4634C20.825 18.4634 18.3319 20.9565 18.3319 24.032H29.469ZM4.41051 18.4634V24.032C4.41051 27.1074 6.90364 29.6005 9.97907 29.6005C13.0545 29.6005 15.5476 27.1074 15.5476 24.032V18.4634H4.41051ZM18.3319 15.6792V4.54204H23.9005C26.9759 4.54204 29.469 7.03517 29.469 10.1106C29.469 13.186 26.9759 15.6792 23.9005 15.6792H18.3319Z" fill="#263238"/>
</g>
<defs>
<clipPath id="clip0_1_996">
<rect width="27.8428" height="27.8428" fill="white" transform="translate(3.01837 3.1499)"/>
</clipPath>
</defs>
</svg>
