<svg width="34" height="34" viewBox="0 0 34 34" fill="none" xmlns="http://www.w3.org/2000/svg">
<path d="M4.13274 11.6341V11.9822H4.48077H29.5393H29.8873V11.6341V10.068C29.8873 9.2834 29.5756 8.53095 29.0208 7.97616C28.4661 7.42137 27.7136 7.1097 26.929 7.1097H7.09103C6.30644 7.1097 5.55399 7.42137 4.9992 7.97616C4.44441 8.53095 4.13274 9.2834 4.13274 10.068V11.6341ZM29.8873 13.7224V13.3743H29.5393H4.48077H4.13274V13.7224V23.6413C4.13274 24.4259 4.44441 25.1784 4.9992 25.7332C5.55399 26.288 6.30644 26.5996 7.09103 26.5996H26.929C27.7136 26.5996 28.4661 26.288 29.0208 25.7332C29.5756 25.1784 29.8873 24.4259 29.8873 23.6413V13.7224ZM2.7406 10.068C2.7406 8.91418 3.19895 7.80763 4.01481 6.99177C4.83067 6.1759 5.93722 5.71756 7.09103 5.71756H26.929C28.0828 5.71756 29.1894 6.1759 30.0052 6.99177C30.8211 7.80763 31.2794 8.91418 31.2794 10.068V23.6413C31.2794 24.7952 30.8211 25.9017 30.0052 26.7176C29.1894 27.5334 28.0828 27.9918 26.929 27.9918H7.09103C5.93722 27.9918 4.83067 27.5334 4.01481 26.7176C3.19895 25.9017 2.7406 24.7952 2.7406 23.6413V10.068ZM22.2305 20.335H25.3629C25.5475 20.335 25.7245 20.4084 25.8551 20.5389C25.9856 20.6694 26.0589 20.8465 26.0589 21.0311C26.0589 21.2157 25.9856 21.3927 25.8551 21.5233C25.7245 21.6538 25.5475 21.7272 25.3629 21.7272H22.2305C22.0459 21.7272 21.8689 21.6538 21.7383 21.5233C21.6078 21.3927 21.5345 21.2157 21.5345 21.0311C21.5345 20.8465 21.6078 20.6694 21.7383 20.5389C21.8689 20.4084 22.0459 20.335 22.2305 20.335Z" fill="#4CAF4F" stroke="#4CAF4F" stroke-width="0.696069"/>
</svg>
